<mxfile host="app.diagrams.net" agent="Mozilla/5.0 (Windows NT 10.0; Win64; x64) AppleWebKit/537.36 (KHTML, like Gecko) Chrome/133.0.0.0 Safari/537.36" version="26.0.11">
  <diagram name="PÃ¡gina-1" id="tW56RrhJ1xHj0PD3YKn-">
    <mxGraphModel dx="1075" dy="464" grid="1" gridSize="10" guides="1" tooltips="1" connect="1" arrows="1" fold="1" page="1" pageScale="1" pageWidth="827" pageHeight="1169" math="0" shadow="0">
      <root>
        <mxCell id="0" />
        <mxCell id="1" parent="0" />
        <mxCell id="zxhx00Xwytojn8IYKHnI-1" value="Horizontal Container" style="swimlane;horizontal=0;whiteSpace=wrap;html=1;startSize=27;" vertex="1" parent="1">
          <mxGeometry x="33" y="40" width="835" height="480" as="geometry" />
        </mxCell>
        <mxCell id="zxhx00Xwytojn8IYKHnI-8" value="" style="swimlane;startSize=0;" vertex="1" parent="zxhx00Xwytojn8IYKHnI-1">
          <mxGeometry x="27" width="798" height="120" as="geometry" />
        </mxCell>
        <mxCell id="zxhx00Xwytojn8IYKHnI-4" value="INICIO DE PROCESSO" style="ellipse;whiteSpace=wrap;html=1;" vertex="1" parent="zxhx00Xwytojn8IYKHnI-8">
          <mxGeometry x="20" y="20" width="120" height="80" as="geometry" />
        </mxCell>
        <mxCell id="zxhx00Xwytojn8IYKHnI-9" value="" style="swimlane;startSize=0;" vertex="1" parent="zxhx00Xwytojn8IYKHnI-1">
          <mxGeometry x="27" y="120" width="798" height="250" as="geometry" />
        </mxCell>
        <mxCell id="zxhx00Xwytojn8IYKHnI-11" value="Homepage" style="rounded=0;whiteSpace=wrap;html=1;" vertex="1" parent="zxhx00Xwytojn8IYKHnI-9">
          <mxGeometry x="20" y="30" width="120" height="60" as="geometry" />
        </mxCell>
        <mxCell id="zxhx00Xwytojn8IYKHnI-12" style="edgeStyle=orthogonalEdgeStyle;rounded=0;orthogonalLoop=1;jettySize=auto;html=1;entryX=0.5;entryY=0;entryDx=0;entryDy=0;" edge="1" parent="zxhx00Xwytojn8IYKHnI-1" source="zxhx00Xwytojn8IYKHnI-4" target="zxhx00Xwytojn8IYKHnI-11">
          <mxGeometry relative="1" as="geometry" />
        </mxCell>
      </root>
    </mxGraphModel>
  </diagram>
</mxfile>
